<svg version="1.1" viewBox="0 0 42 42" xmlns="http://www.w3.org/2000/svg">
 <g transform="translate(1.0925 -.00745)">
  <path d="m11.647 27.24s-9.9746-0.0233-11.631-0.0248c-0.0014591-0.0043-0.0025535-0.0091-0.0036478-0.0138h-3.3e-6c-0.0010932-0.0048-0.0021869-0.0095-0.0036446-0.0139 0-0.0598-0.0043774-27.088-0.0087548-27.188h39.815v27.218h-9.9659c0 0.0481 0.0015 14.737 3e-3 14.759-0.011 0.0065-0.0219 0.0127-0.0329 0.0189l-0.0043 0.0025c-0.0095 0.0054-0.019 0.0108-0.0285 0.0165l-18.138-14.777zm14.854 7.7841 0.0321-0.0145v-11.124h9.9601v-20.573h-33.082v20.579h0.16488c3.0394 0 6.0788 0 9.1182-0.0029l13.806 11.135z" clip-rule="evenodd" fill="currentColor" fill-rule="evenodd"/>
  <path d="m20.59 18.815c0-1.6548 0.17551-1.9306 1.6799-2.9837 2.3318-1.6548 3.0088-2.758 3.0088-4.8642 0-3.4099-2.5574-5.7668-6.2432-5.7668-2.1563 0-3.8362 0.75219-4.9143 2.2315-0.82741 1.1032-1.1534 2.3067-1.1784 4.3627h3.4099c0-2.2566 1.0531-3.6356 2.7831-3.6356 1.4793 0 2.6076 1.2286 2.6076 2.8834 0 1.1283-0.30088 1.6047-1.7551 2.8082-2.0058 1.705-2.5825 2.8332-2.5073 4.9645zm0.40117 1.379h-3.761v3.6607h3.761z" stroke-width="0" aria-label="? "/>
 </g>
</svg>
